<svg width="275" height="38" viewBox="0 0 275 38" fill="none" xmlns="http://www.w3.org/2000/svg">
<path d="M0.00299835 0H150L139 38H0.00299835V0Z" fill="url(#paint0_linear_6068_32504)"/>
<path d="M148 12L275 12V38H137L148 12Z" fill="#F45126"/>
<path d="M155 12H146.984L150.406 0H139.367L135 21.8367H140.346L138.986 38L155 12Z" fill="#FF9146"/>
<path d="M30.6079 26L32.3999 14.72H39.8399L39.5679 16.336H34.1919L33.6959 19.536H38.7039L38.4479 21.152H33.4399L32.6719 26H30.6079ZM39.7642 26L41.5562 14.72H46.2922C47.6255 14.72 48.5909 15.024 49.1882 15.632C49.7855 16.24 49.9935 17.0987 49.8122 18.208C49.7162 18.8587 49.4762 19.4187 49.0922 19.888C48.7189 20.3573 48.2335 20.72 47.6362 20.976C47.0495 21.2213 46.3829 21.344 45.6362 21.344L45.7162 21.04H46.2122C46.6602 21.04 47.0335 21.1627 47.3322 21.408C47.6415 21.6427 47.8815 21.9947 48.0522 22.464L49.2522 26H47.0922L45.8762 22.336C45.7695 21.9627 45.5722 21.7173 45.2842 21.6C44.9962 21.4827 44.6389 21.424 44.2122 21.424H42.5482L41.8282 26H39.7642ZM42.7882 19.904H45.4442C46.1375 19.904 46.6815 19.7547 47.0762 19.456C47.4815 19.1573 47.7269 18.7307 47.8122 18.176C47.9082 17.5573 47.7909 17.0987 47.4602 16.8C47.1402 16.4907 46.6175 16.336 45.8922 16.336H43.3482L42.7882 19.904ZM50.9986 26L52.7906 14.72H60.3906L60.1346 16.336H54.5026L54.0226 19.456H59.2706L59.0146 21.088H53.7666L53.2386 24.368H58.8546L58.5986 26H50.9986ZM60.5142 26L62.3062 14.72H69.9062L69.6502 16.336H64.0182L63.5382 19.456H68.7862L68.5302 21.088H63.2822L62.7542 24.368H68.3702L68.1142 26H60.5142ZM73.9216 26.16C73.0469 26.16 72.2416 26.0587 71.5056 25.856C70.7802 25.6427 70.1776 25.3707 69.6976 25.04L70.4176 23.424C70.9189 23.7227 71.4682 23.968 72.0656 24.16C72.6629 24.3413 73.3349 24.432 74.0816 24.432C74.9136 24.432 75.5376 24.2933 75.9536 24.016C76.3696 23.7387 76.6096 23.3813 76.6736 22.944C76.7376 22.5387 76.6629 22.2133 76.4496 21.968C76.2362 21.7227 75.8256 21.5573 75.2176 21.472L73.5536 21.2C72.5509 21.04 71.8096 20.6773 71.3296 20.112C70.8602 19.536 70.6949 18.8 70.8336 17.904C70.9402 17.2213 71.2069 16.6347 71.6336 16.144C72.0602 15.6427 72.6202 15.2533 73.3136 14.976C74.0176 14.6987 74.8229 14.56 75.7296 14.56C76.4869 14.56 77.1856 14.6613 77.8256 14.864C78.4656 15.056 78.9829 15.3227 79.3776 15.664L78.6576 17.248C78.2629 16.9493 77.8042 16.7147 77.2816 16.544C76.7696 16.3733 76.1829 16.288 75.5216 16.288C74.7536 16.288 74.1402 16.432 73.6816 16.72C73.2229 16.9973 72.9509 17.3867 72.8656 17.888C72.7909 18.304 72.8656 18.6507 73.0896 18.928C73.3136 19.1947 73.7349 19.376 74.3536 19.472L76.0176 19.728C77.0416 19.888 77.7829 20.24 78.2416 20.784C78.7002 21.328 78.8602 22.048 78.7216 22.944C78.6256 23.5627 78.3696 24.1173 77.9536 24.608C77.5376 25.088 76.9882 25.4667 76.3056 25.744C75.6336 26.0213 74.8389 26.16 73.9216 26.16ZM80.1861 26L81.9781 14.72H84.0421L83.2901 19.424H89.0661L89.8181 14.72H91.8821L90.0901 26H88.0261L88.7941 21.136H83.0181L82.2501 26H80.1861ZM92.5767 26L94.3687 14.72H96.4327L94.6407 26H92.5767ZM97.1236 26L98.9156 14.72H103.732C105.022 14.72 105.961 15.0453 106.548 15.696C107.134 16.336 107.337 17.2053 107.156 18.304C107.06 18.944 106.83 19.504 106.468 19.984C106.116 20.4533 105.641 20.816 105.044 21.072C104.457 21.328 103.753 21.456 102.932 21.456H99.9076L99.1876 26H97.1236ZM100.164 19.824H102.868C103.561 19.824 104.094 19.6853 104.468 19.408C104.852 19.1307 105.086 18.7147 105.172 18.16C105.268 17.5627 105.166 17.1093 104.868 16.8C104.569 16.4907 104.073 16.336 103.38 16.336H100.708L100.164 19.824Z" fill="white"/>
<defs>
<linearGradient id="paint0_linear_6068_32504" x1="-3.99993" y1="38" x2="138" y2="38" gradientUnits="userSpaceOnUse">
<stop stop-color="#EB1C1F"/>
<stop offset="1" stop-color="#F64F22"/>
</linearGradient>
</defs>
</svg>
