<?xml version="1.0" encoding="UTF-8"?>
<svg id="Layer_2" data-name="Layer 2" xmlns="http://www.w3.org/2000/svg" viewBox="0 0 569.61 168.73">
  <defs>
    <style>
      .cls-1 {
        letter-spacing: 0em;
      }

      .cls-2 {
        letter-spacing: 0em;
      }

      .cls-3 {
        fill: #ef4136;
      }

      .cls-4 {
        fill: #231f20;
        font-family: BeVietnamPro-Bold, 'Be Vietnam Pro';
        font-size: 148.92px;
        font-weight: 700;
      }

      .cls-5 {
        fill: #006838;
      }
    </style>
  </defs>
  <g id="Layer_1-2" data-name="Layer 1">
    <text class="cls-4" transform="translate(116.89 129.56)"><tspan class="cls-2" x="0" y="0">a</tspan><tspan class="cls-1" x="98.43" y="0">miuk</tspan></text>
    <g>
      <path class="cls-3" d="M89.97,55.36c-12.47-11.67-28.42-16.92-44.95-10.09-24.5,10.12-28.79,43.55-7.96,59.66l.16.62-16.41,16.36c-.56.21-.86-.09-1.27-.37-1.86-1.25-6.07-6.18-7.56-8.13C-2.15,94.85-4.07,68.1,7.77,47.89,28.99,11.72,82.23,9.75,108.48,41.09l-16.13,16.16c-1.21.62-1.75-1.29-2.39-1.89Z"/>
      <path class="cls-5" d="M115.66,75.36c2.29,26.3-14.04,52.76-40.23,59.01-16.99,4.05-36.02.93-50.72-8.39l16.89-17.41c4.5,1.69,8.98,3.88,13.85,4.37,13.56,1.36,26.65-2.2,32.88-15.18h-35.84c-.28-1.06.27-.76.57-1.02,7.58-6.7,14.25-14.43,21.6-21.38h40.99Z"/>
    </g>
  </g>
</svg>