<svg width="300" height="300" viewBox="0 0 300 300" fill="none" xmlns="http://www.w3.org/2000/svg">
  <rect width="300" height="300" fill="#F9FAFB"/>
  
  <!-- Bike Mount Base -->
  <rect x="90" y="140" width="120" height="25" rx="5" fill="#4B5563"/>
  <rect x="95" y="140" width="110" height="15" rx="3" fill="#6B7280"/>
  
  <!-- Clamp -->
  <rect x="120" y="165" width="60" height="30" rx="4" fill="#6B7280"/>
  <rect x="130" y="170" width="40" height="20" rx="2" fill="#4B5563"/>
  <rect x="140" y="170" width="20" height="20" rx="2" fill="#374151"/>
  
  <!-- Quick Release Mount -->
  <rect x="120" y="100" width="60" height="40" rx="5" fill="#9CA3AF"/>
  <circle cx="150" cy="120" r="15" fill="#6B7280"/>
  <circle cx="150" cy="120" r="10" fill="#4B5563"/>
  <circle cx="150" cy="120" r="5" fill="#374151"/>
  
  <!-- Connecting Pole -->
  <rect x="145" y="50" width="10" height="50" rx="2" fill="#4B5563"/>
  <circle cx="150" cy="50" r="8" fill="#6B7280"/>
  
  <!-- Various Mounting Adapters -->
  <rect x="60" y="80" width="30" height="20" rx="3" fill="#9CA3AF"/>
  <rect x="65" y="85" width="20" height="10" rx="2" fill="#6B7280"/>
  
  <rect x="60" y="110" width="25" height="20" rx="3" fill="#9CA3AF"/>
  <rect x="65" y="115" width="15" height="10" rx="2" fill="#6B7280"/>
  
  <rect x="210" y="80" width="30" height="20" rx="3" fill="#9CA3AF"/>
  <rect x="215" y="85" width="20" height="10" rx="2" fill="#6B7280"/>
  
  <rect x="210" y="110" width="25" height="20" rx="3" fill="#9CA3AF"/>
  <rect x="215" y="115" width="15" height="10" rx="2" fill="#6B7280"/>
  
  <!-- Camera Placeholder -->
  <rect x="130" y="20" width="40" height="30" rx="4" fill="#1F2937"/>
  <circle cx="150" cy="35" r="8" fill="#334155" stroke="#475569" stroke-width="1"/>
  <circle cx="150" cy="35" r="4" fill="#1F2937"/>
  
  <text x="150" y="230" font-family="Arial" font-size="10" fill="#111827" text-anchor="middle" font-weight="bold">Bộ phụ kiện đa năng</text>
</svg> 