<svg width="300" height="300" viewBox="0 0 300 300" fill="none" xmlns="http://www.w3.org/2000/svg">
  <rect width="300" height="300" fill="#F9FAFB"/>
  
  <!-- Dive Case -->
  <rect x="70" y="70" width="120" height="100" rx="12" fill="#9CA3AF" opacity="0.9"/>
  <rect x="80" y="80" width="100" height="80" rx="8" fill="#6B7280" opacity="0.9"/>
  
  <!-- Camera Placeholder -->
  <rect x="100" y="90" width="60" height="50" rx="5" fill="#1F2937"/>
  <circle cx="130" cy="115" r="15" fill="#334155" stroke="#475569" stroke-width="2"/>
  <circle cx="130" cy="115" r="8" fill="#1F2937"/>
  
  <!-- Lens Cover -->
  <circle cx="170" cy="115" r="10" fill="#E5E7EB" stroke="#D1D5DB" stroke-width="1"/>
  <circle cx="170" cy="115" r="5" fill="#9CA3AF"/>
  
  <!-- Floating Handle -->
  <rect x="200" y="100" width="25" height="80" rx="4" fill="#F59E0B"/>
  <rect x="205" y="105" width="15" height="70" rx="2" fill="#D97706"/>
  <circle cx="212" cy="90" r="15" fill="#F59E0B"/>
  <circle cx="212" cy="90" r="10" fill="#D97706"/>
  <circle cx="212" cy="90" r="5" fill="#B45309"/>
  
  <!-- Dive Accessories -->
  <rect x="170" y="180" width="60" height="40" rx="5" fill="#0EA5E9" opacity="0.7"/>
  <rect x="175" y="185" width="50" height="30" rx="3" fill="#0284C7" opacity="0.7"/>
  
  <rect x="60" y="180" width="80" height="20" rx="4" fill="#0EA5E9" opacity="0.7"/>
  <rect x="65" y="185" width="70" height="10" rx="2" fill="#0284C7" opacity="0.7"/>
  
  <circle cx="110" cy="215" r="15" fill="#0EA5E9" opacity="0.7"/>
  <circle cx="110" cy="215" r="10" fill="#0284C7" opacity="0.7"/>
  
  <!-- Waves -->
  <path d="M 50 240 C 70 230, 90 250, 110 240 C 130 230, 150 250, 170 240 C 190 230, 210 250, 230 240 C 250 230, 270 250, 290 240" stroke="#0EA5E9" stroke-width="3" fill="none" opacity="0.5"/>
  <path d="M 50 255 C 70 245, 90 265, 110 255 C 130 245, 150 265, 170 255 C 190 245, 210 265, 230 255 C 250 245, 270 265, 290 255" stroke="#0EA5E9" stroke-width="2" fill="none" opacity="0.3"/>
  
  <text x="150" y="280" font-family="Arial" font-size="10" fill="#111827" text-anchor="middle" font-weight="bold">Bộ phụ kiện lặn</text>
</svg> 