<svg width="300" height="300" viewBox="0 0 300 300" fill="none" xmlns="http://www.w3.org/2000/svg">
  <rect width="300" height="300" fill="#F9FAFB"/>
  
  <!-- Camera -->
  <rect x="50" y="90" width="80" height="70" rx="6" fill="#111827"/>
  <rect x="55" y="95" width="70" height="60" rx="4" fill="#1F2937"/>
  <circle cx="90" cy="125" r="12" fill="#374151" stroke="#6B7280" stroke-width="2"/>
  <circle cx="90" cy="125" r="6" fill="#111827"/>
  
  <!-- Metal frame -->
  <rect x="45" y="85" width="90" height="80" rx="8" fill="none" stroke="#94A3B8" stroke-width="2" stroke-dasharray="3 2"/>
  <rect x="45" y="160" width="90" height="8" rx="1" fill="#94A3B8"/>
  <rect x="45" y="80" width="90" height="8" rx="1" fill="#94A3B8"/>
  
  <!-- Waterproof case -->
  <rect x="150" y="70" width="100" height="90" rx="10" fill="#D1D5DB"/>
  <rect x="155" y="75" width="90" height="80" rx="8" fill="#9CA3AF"/>
  <rect x="160" y="80" width="80" height="70" rx="6" fill="#6B7280"/>
  <circle cx="200" cy="115" r="20" fill="#4B5563"/>
  <circle cx="200" cy="115" r="15" fill="#374151"/>
  
  <!-- Remote -->
  <rect x="190" y="180" width="30" height="70" rx="4" fill="#111827"/>
  <circle cx="205" cy="195" r="7" fill="#4B5563"/>
  <rect x="195" y="210" width="20" height="8" rx="1" fill="#4B5563"/>
  <rect x="195" y="225" width="20" height="8" rx="1" fill="#4B5563"/>
  
  <text x="145" y="270" font-family="Arial" font-size="12" fill="#111827" text-anchor="middle" font-weight="bold">Combo nâng cao Ace Pro</text>
</svg> 