<svg width="300" height="300" viewBox="0 0 300 300" fill="none" xmlns="http://www.w3.org/2000/svg">
  <rect width="300" height="300" fill="#F9FAFB"/>
  
  <!-- Camera -->
  <rect x="20" y="90" width="60" height="50" rx="5" fill="#111827"/>
  <rect x="24" y="94" width="52" height="42" rx="3" fill="#1F2937"/>
  <circle cx="50" cy="115" r="10" fill="#374151" stroke="#6B7280" stroke-width="2"/>
  <circle cx="50" cy="115" r="5" fill="#111827"/>
  
  <!-- Metal frame -->
  <rect x="15" y="85" width="70" height="60" rx="6" fill="none" stroke="#94A3B8" stroke-width="2" stroke-dasharray="3 2"/>
  <rect x="15" y="140" width="70" height="5" rx="1" fill="#94A3B8"/>
  <rect x="15" y="80" width="70" height="5" rx="1" fill="#94A3B8"/>
  
  <!-- Waterproof case -->
  <rect x="100" y="70" width="70" height="60" rx="8" fill="#D1D5DB"/>
  <rect x="104" y="74" width="62" height="52" rx="6" fill="#9CA3AF"/>
  <rect x="108" y="78" width="54" height="44" rx="4" fill="#6B7280"/>
  <circle cx="135" cy="100" r="15" fill="#4B5563"/>
  <circle cx="135" cy="100" r="10" fill="#374151"/>
  
  <!-- Remote -->
  <rect x="95" y="140" width="25" height="60" rx="3" fill="#111827"/>
  <circle cx="107" cy="152" r="6" fill="#4B5563"/>
  <rect x="99" y="165" width="17" height="6" rx="1" fill="#4B5563"/>
  <rect x="99" y="177" width="17" height="6" rx="1" fill="#4B5563"/>
  
  <!-- Microphone -->
  <rect x="180" y="90" width="20" height="60" rx="3" fill="#4B5563"/>
  <circle cx="190" cy="80" r="10" fill="#6B7280"/>
  <rect x="185" y="80" width="10" height="15" rx="2" fill="#4B5563"/>
  
  <!-- Light -->
  <rect x="210" y="90" width="40" height="30" rx="4" fill="#6B7280"/>
  <rect x="215" y="95" width="30" height="20" rx="3" fill="#4B5563"/>
  <circle cx="230" cy="105" r="8" fill="#E5E7EB"/>
  
  <!-- Tripod -->
  <rect x="220" y="140" width="10" height="70" rx="2" fill="#6B7280"/>
  <circle cx="225" cy="220" r="10" fill="#4B5563"/>
  <path d="M215 220 L235 220 L225 235 Z" fill="#374151"/>
  
  <!-- Battery -->
  <rect x="250" y="100" width="30" height="50" rx="4" fill="#4B5563"/>
  <rect x="255" y="105" width="20" height="40" rx="2" fill="#374151"/>
  <rect x="260" y="110" width="10" height="5" rx="1" fill="#6B7280"/>
  
  <text x="150" y="245" font-family="Arial" font-size="12" fill="#111827" text-anchor="middle" font-weight="bold">Combo chuyên nghiệp Ace Pro</text>
</svg> 