<svg width="300" height="300" viewBox="0 0 300 300" fill="none" xmlns="http://www.w3.org/2000/svg">
  <rect width="300" height="300" fill="#F9FAFB"/>
  
  <!-- Camera GO 3 -->
  <rect x="80" y="100" width="40" height="70" rx="20" fill="#FFFFFF" stroke="#E5E7EB" stroke-width="2"/>
  <circle cx="100" cy="120" r="10" fill="#111827" stroke="#D1D5DB" stroke-width="1"/>
  <circle cx="100" cy="120" r="5" fill="#374151" stroke="#9CA3AF" stroke-width="0.5"/>
  
  <!-- Base Kit -->
  <rect x="70" y="180" width="60" height="20" rx="4" fill="#D1D5DB"/>
  <rect x="75" y="185" width="50" height="10" rx="2" fill="#9CA3AF"/>
  <rect x="90" y="182" width="20" height="16" rx="2" fill="#6B7280"/>
  
  <!-- Action Kit -->
  <rect x="150" y="100" width="60" height="80" rx="5" fill="#E5E7EB"/>
  <rect x="155" y="105" width="50" height="70" rx="3" fill="#D1D5DB"/>
  <rect x="160" y="110" width="40" height="60" rx="2" fill="#9CA3AF"/>
  
  <!-- Screen -->
  <rect x="165" y="115" width="30" height="40" rx="2" fill="#6B7280"/>
  <rect x="170" y="120" width="20" height="30" rx="1" fill="#4B5563"/>
  
  <!-- Control button -->
  <circle cx="180" cy="160" r="5" fill="#111827"/>
  
  <!-- Magnetic Mount -->
  <rect x="170" y="200" width="80" height="10" rx="2" fill="#6B7280"/>
  <rect x="180" y="210" width="60" height="15" rx="3" fill="#4B5563"/>
  <rect x="190" y="225" width="40" height="10" rx="2" fill="#6B7280"/>
  
  <circle cx="210" cy="180" r="15" fill="#6B7280"/>
  <circle cx="210" cy="180" r="10" fill="#4B5563"/>
  <circle cx="210" cy="180" r="5" fill="#374151"/>
  
  <text x="150" y="260" font-family="Arial" font-size="10" fill="#111827" text-anchor="middle" font-weight="bold">Combo nâng cao GO 3</text>
</svg> 