<svg width="300" height="300" viewBox="0 0 300 300" fill="none" xmlns="http://www.w3.org/2000/svg">
  <rect width="300" height="300" fill="#F9FAFB"/>
  
  <!-- Camera -->
  <rect x="60" y="100" width="70" height="110" rx="7" fill="#334155"/>
  <circle cx="95" cy="130" r="14" fill="#1F2937" stroke="#64748B" stroke-width="2"/>
  <circle cx="95" cy="130" r="8" fill="#475569" stroke="#94A3B8" stroke-width="1"/>
  <circle cx="95" cy="130" r="4" fill="#1F2937"/>
  <rect x="70" y="160" width="50" height="25" rx="3" fill="#475569"/>
  
  <!-- Waterproof Selfie Stick -->
  <rect x="150" y="80" width="8" height="150" rx="2" fill="#6B7280"/>
  <circle cx="154" cy="80" r="9" fill="#475569"/>
  <circle cx="154" cy="230" r="7" fill="#475569"/>
  <rect x="152" y="85" width="4" height="140" rx="1" fill="#4B5563"/>
  
  <!-- Basic Accessories -->
  <rect x="180" y="110" width="40" height="25" rx="4" fill="#9CA3AF"/>
  <rect x="185" y="115" width="30" height="15" rx="2" fill="#6B7280"/>
  
  <rect x="180" y="150" width="50" height="30" rx="5" fill="#9CA3AF"/>
  <rect x="185" y="155" width="40" height="20" rx="3" fill="#6B7280"/>
  
  <circle cx="205" cy="200" r="15" fill="#9CA3AF"/>
  <circle cx="205" cy="200" r="10" fill="#6B7280"/>
  <circle cx="205" cy="200" r="5" fill="#4B5563"/>
  
  <text x="150" y="260" font-family="Arial" font-size="10" fill="#111827" text-anchor="middle" font-weight="bold">Combo phổ thông X3</text>
</svg> 