<?xml version="1.0" encoding="UTF-8"?>
<svg width="400" height="400" viewBox="0 0 400 400" fill="none" xmlns="http://www.w3.org/2000/svg">
  <!-- Nền xám nhạt -->
  <rect width="400" height="400" fill="#F3F4F6"/>
  
  <!-- Icon hình ảnh đơn giản -->
  <path d="M160 140H240C244.4 140 248 143.6 248 148V252C248 256.4 244.4 260 240 260H160C155.6 260 152 256.4 152 252V148C152 143.6 155.6 140 160 140ZM236 152H164V240L194 210L209 225L224 210L236 222V152ZM196 188C196 182.5 191.5 178 186 178C180.5 178 176 182.5 176 188C176 193.5 180.5 198 186 198C191.5 198 196 193.5 196 188Z" fill="#9CA3AF"/>
  
  <!-- Text "No Image" -->
  <text x="200" y="300" font-family="Arial" font-size="24" fill="#6B7280" text-anchor="middle">Chưa có ảnh</text>
</svg> 